<?xml version="1.0" standalone="no"?>
<!DOCTYPE svg PUBLIC "-//W3C//DTD SVG 20010904//EN"
 "http://www.w3.org/TR/2001/REC-SVG-20010904/DTD/svg10.dtd">
<svg version="1.0" xmlns="http://www.w3.org/2000/svg"
 width="512.000000pt" height="512.000000pt" viewBox="0 0 512.000000 512.000000"
 preserveAspectRatio="xMidYMid meet">
<metadata>
Created by potrace 1.16, written by Peter Selinger 2001-2019
</metadata>
<g transform="translate(0.000000,512.000000) scale(0.100000,-0.100000)"
fill="#000000" stroke="none">
<path d="M12 5100 c-22 -36 -11 -65 15 -39 18 18 25 -7 13 -51 -6 -23 -18 -44
-26 -47 -10 -4 -14 -23 -14 -75 l0 -69 36 27 c19 15 56 54 80 86 92 119 156
141 222 75 47 -47 39 -67 -25 -67 -58 0 -72 -9 -179 -111 -45 -42 -93 -84
-108 -94 -25 -17 -26 -21 -26 -112 l0 -94 39 22 c73 41 185 134 239 199 29 36
71 86 93 112 52 62 143 107 235 116 l69 7 -27 19 c-20 13 -38 17 -65 12 -130
-20 -114 -25 -243 70 -44 33 -102 29 -161 -11 -50 -32 -73 -27 -67 15 4 30 4
30 -41 30 -35 0 -49 -5 -59 -20z"/>
<path d="M785 5097 c-9 -34 11 -76 39 -83 26 -6 54 5 142 60 36 23 65 32 118
37 51 4 20 6 -111 8 -183 1 -183 1 -188 -22z"/>
<path d="M1434 5099 c-35 -39 -150 -118 -229 -157 -153 -75 -213 -89 -486
-106 -143 -9 -227 -19 -252 -30 -23 -9 -94 -72 -185 -164 -85 -86 -175 -167
-214 -193 -67 -42 -68 -44 -68 -86 l0 -43 43 6 c143 20 200 57 317 209 45 58
106 124 135 146 60 45 147 79 203 79 43 0 102 -17 102 -30 0 -5 -21 -19 -47
-31 -126 -61 -223 -223 -223 -372 0 -38 27 -148 39 -160 13 -13 53 16 47 33
-3 8 -15 41 -26 74 -12 34 -20 76 -18 100 l3 41 18 -50 c18 -54 70 -125 91
-125 7 0 22 11 34 25 21 23 21 26 5 62 -20 47 -23 181 -4 236 14 41 32 46 90
26 36 -13 36 -14 15 -78 -12 -38 -13 -57 -5 -87 33 -120 121 -172 320 -190 71
-6 87 -4 132 15 44 19 56 21 80 11 39 -16 94 -79 109 -124 6 -20 18 -36 26
-36 7 0 21 -12 30 -26 16 -24 16 -27 -2 -51 -27 -36 -139 -93 -184 -93 -72 0
-115 65 -74 111 15 17 14 19 -17 39 -55 33 -108 44 -214 44 -145 0 -243 -33
-440 -147 -139 -81 -350 -272 -385 -349 -24 -53 -26 -130 -4 -152 8 -9 18 -16
20 -16 14 0 77 39 139 85 84 63 141 121 190 195 47 71 36 28 -17 -67 -98 -173
-233 -285 -395 -327 -34 -9 -77 -16 -97 -16 l-36 0 0 -96 c0 -88 2 -95 18 -89
68 29 70 29 87 12 24 -24 32 -22 59 21 65 101 214 201 351 235 115 29 204 31
315 5 11 -2 14 4 12 20 -2 13 4 34 12 48 21 32 83 33 137 2 65 -36 63 -76 -4
-103 l-42 -17 30 -21 c70 -50 143 -137 189 -226 25 -49 53 -97 62 -105 23 -23
49 -19 69 10 14 22 15 33 5 72 -14 58 0 95 45 116 48 23 73 20 106 -14 l30
-30 30 22 c21 16 48 23 94 26 86 6 137 -20 213 -105 67 -76 95 -93 156 -93 89
0 335 106 504 217 107 71 250 207 306 292 24 36 64 109 89 161 59 125 115 207
183 269 146 133 359 192 512 142 31 -10 94 -22 138 -25 74 -7 88 -5 144 19 68
29 110 27 110 -4 0 -39 -114 -141 -158 -141 -6 0 -24 12 -41 26 -47 39 -36 16
23 -50 46 -51 56 -58 79 -52 38 9 94 69 106 113 6 21 11 57 11 80 0 52 17 91
42 99 11 3 35 20 55 37 33 29 36 30 49 13 16 -23 34 -104 34 -156 0 -103 -72
-233 -168 -304 -122 -89 -260 -129 -437 -125 -60 1 -123 -2 -139 -6 -23 -6
-32 -4 -43 10 -24 33 -16 70 22 103 44 40 90 52 193 52 66 0 84 3 89 16 10 26
-30 67 -100 103 -56 29 -76 34 -136 34 -99 0 -164 -33 -225 -115 -43 -58 -126
-128 -151 -128 -6 0 -32 -13 -58 -30 -36 -23 -54 -44 -81 -97 -111 -220 -303
-404 -596 -573 -58 -33 -146 -77 -195 -97 l-90 -38 -150 1 c-124 0 -171 5
-268 27 -66 14 -125 31 -133 38 -25 21 -16 48 21 66 29 14 45 15 95 7 64 -11
71 -7 41 20 -28 26 -89 45 -141 46 -44 0 -46 -2 -70 -48 -24 -45 -27 -47 -64
-45 -35 2 -45 -3 -111 -65 -101 -94 -178 -134 -272 -140 -113 -7 -173 28 -138
82 24 36 42 39 104 16 38 -15 66 -19 90 -15 47 9 123 48 166 87 l37 32 -51 13
-51 13 -36 -40 c-32 -35 -42 -40 -80 -40 -61 0 -104 40 -154 146 -22 46 -45
84 -51 84 -6 0 -42 -29 -80 -64 -82 -76 -182 -130 -278 -152 -122 -28 -170 -4
-179 86 l-4 50 -46 -41 c-46 -40 -161 -101 -214 -114 -24 -6 -28 -12 -28 -45
l0 -38 47 14 c60 18 89 18 97 -1 10 -26 -5 -45 -55 -71 -55 -27 -69 -57 -49
-105 29 -69 84 -84 185 -49 73 25 96 25 129 -1 34 -26 33 -59 -1 -91 -47 -43
-91 -60 -218 -81 -13 -2 -5 -8 25 -16 32 -9 75 -11 147 -7 95 7 103 6 123 -14
29 -29 22 -54 -15 -58 -16 -2 -46 -17 -66 -33 -56 -44 -113 -65 -236 -85
l-113 -18 0 -63 c0 -76 16 -83 45 -21 44 94 158 111 301 45 64 -29 94 -37 139
-37 84 0 128 -29 207 -137 69 -94 87 -123 97 -161 6 -22 8 -21 30 18 l23 41
-50 61 c-62 75 -76 122 -70 230 5 99 35 174 98 242 56 60 118 90 176 83 24 -2
44 -3 44 -2 0 2 -9 24 -20 50 -25 59 -25 90 0 115 30 30 73 25 115 -11 35 -31
47 -62 59 -150 15 -109 116 -250 212 -298 55 -28 118 -25 186 10 27 14 61 22
93 22 138 0 260 -153 227 -284 -6 -24 -9 -46 -6 -50 2 -5 26 3 52 17 44 24 53
25 135 20 55 -4 87 -3 87 3 0 6 -14 32 -30 58 -36 57 -74 174 -66 201 6 16 0
21 -29 26 -46 9 -62 36 -68 116 -2 36 -12 80 -21 98 -33 64 -127 103 -210 88
-34 -7 -44 -15 -106 -88 -68 -81 -204 -70 -226 18 -9 35 9 65 67 112 l48 39
-53 12 c-109 24 -221 92 -252 154 l-16 30 60 -6 c68 -7 228 -60 317 -104 51
-26 65 -29 95 -21 63 17 179 5 244 -25 l58 -27 -6 23 c-23 93 114 208 210 177
68 -23 83 -84 35 -144 -31 -38 -31 -60 -3 -103 23 -36 32 -27 32 31 0 171 108
305 283 352 63 17 123 18 166 3 29 -10 34 -9 56 15 29 31 59 33 82 7 16 -20
17 -19 50 9 47 42 98 66 186 88 91 24 151 57 200 111 30 33 37 49 37 81 0 47
-22 105 -52 137 l-21 23 21 0 c43 0 131 -41 161 -76 66 -75 26 -154 -125 -251
l-62 -40 35 -18 c19 -11 52 -39 74 -63 l38 -44 31 33 c53 58 61 80 54 161 l-7
74 34 28 c31 26 38 28 100 24 86 -7 173 -52 254 -133 111 -111 173 -274 107
-283 -30 -5 -45 9 -81 74 -57 100 -181 204 -244 204 -44 0 -55 -19 -59 -98
l-3 -72 85 -51 c190 -112 300 -274 300 -438 0 -71 -24 -137 -63 -179 -25 -27
-88 -62 -112 -62 -8 0 -19 -10 -24 -22 -19 -49 -91 -88 -165 -88 -78 0 -84 8
-34 51 l43 38 -45 1 c-105 1 -230 51 -430 171 -106 63 -160 83 -160 60 0 -5
11 -18 25 -29 39 -31 48 -66 24 -96 -11 -14 -28 -28 -39 -31 -24 -8 -27 -25
-5 -25 9 0 26 -11 38 -23 16 -18 37 -25 78 -30 71 -7 103 -23 207 -106 59 -47
95 -68 124 -73 23 -4 59 -20 80 -34 70 -49 148 -192 148 -273 0 -14 3 -36 6
-47 6 -21 7 -21 44 -7 58 23 103 11 154 -43 37 -38 48 -44 85 -44 36 0 48 6
86 44 66 66 89 118 82 185 l-6 55 53 50 c29 28 70 74 90 103 51 72 122 133
203 176 80 42 181 77 220 77 22 0 11 -9 -56 -45 -46 -25 -106 -62 -132 -81
-52 -38 -133 -124 -124 -132 2 -3 25 14 50 37 116 106 275 182 401 189 114 6
164 -22 164 -94 0 -41 -110 -147 -148 -142 -33 4 -41 37 -18 73 22 34 21 35
-27 35 -77 0 -231 -66 -369 -157 -64 -42 -69 -48 -84 -101 -22 -80 -34 -111
-62 -157 -65 -107 -151 -179 -247 -208 -53 -17 -41 -22 40 -18 110 7 289 142
415 313 84 115 123 138 230 138 61 0 105 -12 159 -44 l34 -20 -24 -9 c-141
-56 -199 -95 -380 -255 -52 -46 -128 -106 -169 -134 -41 -28 -74 -53 -73 -55
1 -3 14 -14 29 -24 119 -78 207 -224 222 -369 l7 -65 44 -3 c54 -4 84 21 105
87 33 105 30 170 -5 112 -19 -31 -65 -61 -94 -61 -30 0 -73 58 -86 115 -14 65
-2 120 38 174 30 38 113 81 161 81 42 0 89 -24 97 -50 3 -11 10 -20 15 -20 15
0 40 43 40 70 0 14 9 40 20 58 18 29 25 33 57 30 52 -4 76 -41 81 -122 5 -70
-9 -111 -54 -160 l-27 -28 24 7 c137 41 205 223 162 439 -6 26 -4 29 15 24 21
-6 22 -3 22 81 l0 88 -67 12 c-78 14 -198 69 -198 91 0 12 20 16 95 21 61 4
108 12 133 24 33 17 37 23 37 55 0 30 -9 45 -54 91 -116 120 -109 250 13 266
37 5 41 8 41 35 l0 29 -32 -17 c-61 -31 -142 -54 -194 -54 -29 0 -114 -16
-188 -35 -171 -44 -186 -45 -186 -5 0 33 21 50 85 70 46 15 125 58 125 69 0
46 -240 139 -383 148 -78 5 -90 9 -97 27 -9 26 4 58 32 75 30 19 143 14 225
-9 100 -28 168 -60 241 -114 51 -38 62 -43 62 -27 0 15 10 20 58 26 31 4 101
23 155 43 l97 36 0 78 0 78 -42 -21 c-82 -42 -151 -60 -228 -60 -65 -1 -91 5
-183 40 -91 35 -118 41 -183 41 -87 0 -175 -20 -248 -57 -54 -26 -116 -79
-116 -98 0 -26 82 -93 135 -109 67 -22 87 -42 60 -62 -25 -19 -5 -18 58 1 77
23 108 -4 34 -30 -21 -7 -60 -34 -88 -60 -50 -47 -102 -75 -139 -75 -12 0 -35
-7 -51 -16 -17 -8 -33 -13 -36 -10 -7 7 34 70 71 109 17 18 22 29 13 32 -105
37 -130 50 -155 82 -15 20 -40 49 -55 66 -56 58 -140 207 -118 207 5 0 29 -11
52 -25 24 -14 54 -25 66 -25 12 0 50 23 85 51 35 28 88 64 119 79 76 39 94 79
94 210 0 83 -3 101 -25 139 -31 55 -70 85 -98 77 -28 -9 -34 -32 -17 -66 38
-74 -1 -171 -63 -155 -84 21 -133 158 -98 277 46 158 242 184 359 47 39 -45
74 -113 84 -160 3 -16 8 -29 11 -29 4 0 24 18 47 40 22 21 77 61 122 88 l82
50 -35 73 c-63 132 -78 231 -50 335 20 76 46 114 90 134 29 13 46 32 70 76 54
98 172 153 272 126 31 -8 51 -8 73 -1 l31 11 0 89 0 89 -27 -7 c-16 -4 -60 -7
-99 -7 -57 1 -80 6 -117 26 l-45 25 -5 -33 c-12 -74 -53 -105 -177 -136 -76
-19 -170 -72 -170 -96 0 -7 9 -30 20 -52 26 -52 26 -123 0 -166 -59 -94 -245
-99 -278 -7 -16 47 6 85 64 113 49 22 145 114 247 235 67 80 114 179 123 262
l7 65 40 -5 c49 -7 82 -30 123 -88 17 -24 41 -50 55 -56 33 -17 102 -15 174 5
59 17 60 18 63 55 2 24 -2 43 -12 53 -20 20 -21 84 -1 110 11 15 14 54 15 177
0 98 -4 157 -10 157 -5 0 -10 7 -10 15 0 8 5 15 10 15 6 0 10 9 10 21 0 15 -5
19 -19 14 -10 -3 -24 1 -31 10 -14 17 -130 22 -130 5 0 -25 -46 -105 -87 -150
-63 -70 -134 -119 -204 -141 -107 -34 -201 -18 -215 35 -4 16 -17 27 -43 35
-85 25 -149 4 -189 -61 -21 -34 -58 -58 -88 -58 -21 0 -64 46 -64 69 0 37 47
76 146 121 55 24 101 45 103 47 14 11 -71 113 -93 113 -6 0 -51 -41 -101 -91
-49 -49 -110 -99 -135 -112 -54 -26 -170 -35 -225 -17 -51 17 -105 66 -105 96
0 28 6 29 53 9 66 -27 124 -20 223 29 49 25 103 54 119 65 l30 21 -151 0
c-128 0 -158 -3 -195 -19 -68 -30 -117 -37 -125 -17 -9 22 -22 20 -61 -10 -26
-20 -33 -32 -29 -48 13 -54 -63 -116 -144 -116 -113 0 -147 81 -69 165 l42 45
-86 0 -86 0 -37 -67 c-21 -38 -57 -96 -82 -131 -24 -35 -42 -64 -40 -66 1 -1
47 -8 100 -14 202 -24 321 -101 287 -184 -17 -41 -64 -68 -118 -68 -38 0 -52
7 -100 46 -80 66 -130 86 -233 92 -75 4 -100 1 -172 -22 -142 -44 -212 -30
-295 59 -52 56 -93 75 -160 75 -75 0 -103 38 -60 81 34 34 140 79 187 79 73 0
114 -25 180 -109 l19 -25 37 55 c56 83 44 155 -29 179 -28 9 -45 7 -111 -15
-43 -14 -105 -41 -138 -60 -34 -18 -79 -37 -101 -40 -72 -13 -187 -78 -262
-148 -28 -26 -36 -29 -56 -20 -58 27 -157 -96 -157 -195 1 -74 33 -119 205
-287 109 -107 166 -170 171 -189 8 -35 -8 -70 -48 -99 l-26 -20 -97 74 c-54
40 -133 109 -177 153 -129 131 -179 221 -179 325 -1 102 83 226 209 309 28 19
52 39 52 43 0 15 -38 29 -76 29 -50 0 -104 -27 -193 -99 -133 -105 -174 -190
-152 -309 24 -131 94 -232 296 -431 l136 -133 142 27 c89 17 191 29 272 32
123 5 133 7 180 35 63 38 167 121 229 183 58 59 86 112 86 165 0 35 3 40 24
40 23 0 82 -28 180 -85 43 -25 60 -29 125 -28 127 1 221 20 256 54 40 38 83
46 128 24 33 -16 39 -15 109 5 76 23 151 60 221 111 50 36 60 23 29 -38 -29
-55 -74 -94 -129 -110 l-48 -13 78 4 c99 6 185 44 262 117 30 29 55 55 55 58
0 4 -17 7 -38 7 -79 2 -127 52 -120 125 4 46 20 46 39 0 21 -50 55 -71 113
-73 53 -1 64 7 117 78 42 58 90 84 114 64 8 -7 15 -21 15 -31 0 -15 6 -18 28
-14 15 3 69 12 119 20 104 17 263 65 338 102 28 14 75 45 106 69 42 32 59 40
68 31 29 -29 2 -106 -57 -159 -60 -54 -126 -84 -270 -122 -230 -62 -274 -84
-417 -214 -185 -169 -348 -238 -545 -230 -88 3 -101 6 -163 41 l-69 37 -96
-30 c-146 -47 -283 -65 -398 -51 -127 15 -167 1 -301 -104 -102 -80 -102 -80
-82 -101 31 -33 25 -87 -13 -119 -30 -25 -36 -27 -102 -21 -215 18 -236 18
-338 1 -171 -28 -166 -40 20 -49 57 -2 107 -7 110 -11 12 -12 -60 -65 -103
-76 -22 -6 -68 -9 -102 -6 -63 5 -65 6 -203 93 -51 33 -60 35 -123 32 -57 -3
-71 -8 -94 -31 -27 -26 -27 -28 -13 -69 14 -40 17 -42 55 -42 37 -1 42 -4 65
-48 37 -68 55 -84 127 -113 36 -14 82 -37 101 -50 20 -14 39 -25 43 -25 3 0
24 17 46 38 51 49 93 69 184 86 87 17 224 65 284 101 31 18 57 46 90 100 33
52 55 77 73 82 69 17 67 -112 -3 -201 -13 -18 -18 -18 -55 -6 -40 13 -42 13
-141 -38 l-100 -52 43 0 c136 0 211 -78 163 -169 -15 -31 -101 -110 -142 -132
-20 -11 -28 -11 -46 1 -30 19 -60 32 -135 61 -34 13 -61 28 -59 34 2 5 15 17
30 25 23 13 33 13 93 -3 36 -10 69 -16 71 -13 3 3 0 19 -7 36 -11 26 -17 30
-52 30 -75 0 -214 -95 -245 -168 -11 -27 -12 -40 -1 -68 16 -45 -4 -87 -44
-92 -32 -4 -95 48 -114 95 -16 37 -18 101 -5 136 9 22 6 25 -28 36 -78 23
-124 15 -234 -41 -94 -48 -109 -53 -182 -56 -148 -7 -271 55 -430 218 -112
114 -148 135 -235 134 -101 -2 -188 -53 -231 -136 -22 -44 -50 -49 -73 -16
-23 32 -20 89 7 128 28 42 128 111 204 141 44 17 79 23 148 23 81 1 97 -2 155
-30 36 -17 114 -70 173 -117 122 -97 173 -125 244 -133 49 -6 135 7 186 29
l28 12 -65 49 c-102 77 -154 166 -141 239 4 21 3 37 -4 41 -22 14 -12 71 17
98 82 77 191 84 273 18 60 -48 46 -20 -26 54 -36 37 -65 74 -65 84 0 10 -30
47 -67 84 -55 53 -78 69 -124 82 -141 40 -219 156 -219 326 0 175 110 371 257
457 24 14 43 27 43 29 0 2 -35 4 -78 4 -67 0 -82 -3 -98 -21z m2258 -259 c44
-34 53 -70 30 -126 -11 -27 -23 -65 -26 -84 -8 -45 -38 -94 -71 -116 -23 -15
-27 -15 -50 0 -13 9 -42 16 -63 16 -81 0 -81 53 0 80 25 9 54 22 63 30 17 15
17 22 -2 151 -4 30 -1 39 18 53 31 22 71 20 101 -4z m-2512 -72 c55 -28 69
-40 88 -80 35 -69 12 -118 -55 -118 -28 0 -46 10 -96 55 -62 57 -183 125 -221
125 -18 0 -16 4 12 22 76 48 172 47 272 -4z m1045 -62 c13 -13 31 -49 40 -80
21 -72 59 -106 120 -106 34 0 73 15 178 69 201 103 332 125 436 72 46 -24 111
-94 111 -121 0 -33 -35 -60 -79 -60 -22 0 -60 9 -86 20 -50 21 -134 26 -165
10 -11 -6 -35 -41 -55 -79 -89 -169 -282 -292 -390 -247 -24 11 -40 26 -48 46
-10 27 -15 29 -44 24 -62 -12 -163 43 -163 88 0 22 10 23 54 2 21 -11 44 -14
61 -10 l27 7 -46 42 c-25 24 -51 58 -57 76 -10 29 -13 31 -28 17 -10 -9 -26
-16 -37 -16 -21 0 -74 49 -93 87 -31 61 7 133 71 133 19 0 48 10 68 25 46 32
94 32 125 1z m1251 -31 c8 -20 -13 -45 -37 -45 -23 0 -24 9 -3 38 18 26 32 28
40 7z m418 -37 c-26 -44 -54 -73 -90 -94 -58 -34 -77 -30 -23 5 24 15 60 45
78 65 36 37 48 45 35 24z m-2929 -181 c8 -47 64 -113 120 -139 l40 -19 -49 4
c-61 6 -95 30 -125 91 -22 44 -23 51 -11 89 8 23 15 35 16 27 2 -8 5 -32 9
-53z m3561 -2 c12 -30 -9 -70 -65 -125 -59 -58 -166 -120 -205 -120 -67 0 -87
70 -36 121 31 32 50 31 50 -1 0 -54 63 -22 99 50 18 37 37 59 61 72 42 22 89
23 96 3z m-3377 -87 c26 -18 26 -18 3 -18 -27 0 -72 42 -72 67 1 15 4 14 21
-7 12 -14 33 -33 48 -42z m1969 -204 c25 -17 21 -34 -8 -34 -24 0 -90 31 -90
42 0 14 75 9 98 -8z m-117 -74 c27 -15 25 -65 -5 -95 -13 -13 -42 -29 -64 -36
-35 -10 -45 -9 -79 7 -33 17 -38 23 -38 54 0 34 1 35 37 33 29 -2 44 4 62 22
27 27 55 31 87 15z m-1952 -125 c165 -39 289 -159 317 -306 7 -33 5 -32 -38
26 -63 83 -142 157 -213 200 -65 39 -169 75 -216 75 -16 0 -29 5 -29 10 0 15
106 12 179 -5z m-359 -20 c23 -8 60 -15 82 -15 45 0 47 -13 6 -43 -32 -24 -97
-26 -206 -7 l-74 12 36 24 c69 47 93 51 156 29z m3763 -207 c-3 -35 -7 -65
-10 -67 -10 -12 -32 39 -33 75 0 45 5 54 32 54 16 0 17 -6 11 -62z m-273 -21
c-125 -119 -288 -178 -402 -146 -37 10 -52 29 -24 29 39 0 199 57 322 114 77
35 146 65 154 65 8 0 -14 -28 -50 -62z m-896 -29 c-9 -29 -36 -89 -62 -133
-26 -44 -64 -116 -85 -159 -99 -204 -238 -356 -328 -356 -31 0 -249 72 -249
83 0 18 57 28 115 20 80 -10 103 -6 147 23 104 72 202 196 294 373 36 68 64
108 107 147 32 30 62 54 67 54 5 0 2 -24 -6 -52z m235 -138 c91 -46 188 -161
217 -256 19 -64 0 -54 -59 32 -66 96 -150 177 -220 215 -39 21 -55 34 -47 39
16 10 52 0 109 -30z m-251 -194 c5 -43 -6 -73 -41 -114 -18 -20 -38 -49 -45
-65 -18 -41 -69 -69 -116 -63 -21 2 -42 8 -47 13 -11 11 116 143 159 165 22
12 39 32 50 58 19 45 35 47 40 6z m-2064 -61 c18 -27 20 -35 8 -35 -12 0 -52
39 -52 50 0 19 28 10 44 -15z m651 9 c8 -4 29 -26 46 -50 16 -24 46 -60 66
-79 39 -38 35 -43 -21 -20 -48 20 -112 79 -124 115 -14 37 -4 48 33 34z
m-1032 -386 c8 -12 7 -21 -3 -32 -12 -15 -14 -15 -31 0 -27 24 -25 56 2 52 12
-2 27 -10 32 -20z m-87 -91 c43 -48 74 -131 74 -198 0 -49 -26 -153 -51 -202
-59 -118 -166 -164 -223 -97 -29 35 -44 96 -29 119 6 9 25 17 44 19 42 4 55
15 81 65 24 49 27 122 6 144 -20 19 -41 8 -33 -17 14 -43 -50 -64 -106 -35
-60 32 -85 106 -54 165 26 50 122 91 200 86 44 -3 54 -8 91 -49z m553 -171 c6
-7 21 -42 32 -77 24 -74 67 -160 103 -208 14 -19 24 -36 22 -39 -9 -8 -65 29
-99 67 -50 55 -77 113 -87 183 -11 79 0 109 29 74z m3171 -231 c0 -8 -12 -22
-27 -31 -311 -192 -459 -351 -509 -545 -15 -60 -14 -140 2 -183 11 -30 -15
-16 -33 17 -39 72 -13 322 44 430 10 18 16 35 16 38 -4 12 75 105 114 135 23
18 63 40 90 49 26 9 86 34 133 55 104 47 108 48 143 49 17 1 27 -4 27 -14z
m-2624 -40 c28 -28 28 -58 1 -63 -24 -5 -57 26 -57 53 0 42 20 46 56 10z
m2594 -156 c-14 -11 -65 -46 -115 -78 -49 -31 -126 -91 -169 -131 -48 -44 -81
-69 -84 -61 -7 21 66 117 121 159 91 70 327 176 247 111z m-569 -161 c7 -13
10 -49 7 -92 -8 -119 -87 -251 -147 -244 -37 4 -41 48 -7 96 30 45 61 115 70
162 15 74 27 100 46 100 11 0 25 -10 31 -22z m-161 -158 c0 -23 -26 -44 -45
-36 -21 8 -19 53 2 65 21 11 43 -3 43 -29z m1186 -175 c31 -75 14 -103 -80
-130 -78 -22 -162 -65 -255 -130 -147 -102 -155 -98 -44 21 56 60 128 132 162
159 62 52 166 115 189 115 7 0 20 -16 28 -35z"/>
<path d="M2604 4409 c-61 -49 -152 -90 -210 -96 -30 -3 -54 -7 -54 -8 0 -1 5
-16 11 -34 9 -24 17 -31 38 -31 81 0 176 62 230 150 17 28 29 50 27 50 -2 0
-21 -14 -42 -31z"/>
<path d="M2016 5110 c8 -8 27 -8 60 -2 l49 10 -59 1 c-42 1 -57 -2 -50 -9z"/>
<path d="M2945 5056 c-33 -35 -87 -80 -120 -101 -74 -48 -105 -75 -105 -91 0
-18 60 -28 118 -19 42 6 55 14 117 78 39 40 85 100 103 135 l33 62 -43 0 c-40
-1 -48 -6 -103 -64z"/>
<path d="M4440 5112 c0 -17 92 -111 124 -126 93 -44 196 10 196 104 0 27 -3
30 -33 30 -24 0 -41 -8 -62 -30 -16 -16 -34 -30 -40 -30 -6 0 -29 13 -51 30
-30 23 -50 30 -86 30 -27 0 -48 -3 -48 -8z"/>
<path d="M368 4314 c-62 -54 -149 -98 -227 -115 l-56 -13 46 -7 c80 -12 199
-49 262 -79 33 -17 61 -29 62 -28 15 19 25 56 25 94 0 43 -4 51 -45 88 -25 23
-45 46 -45 51 0 5 10 19 22 32 36 38 13 26 -44 -23z"/>
<path d="M4980 4051 c-67 -14 -121 -54 -150 -109 -16 -32 -5 -40 23 -15 36 33
83 53 127 53 68 0 66 -41 -6 -120 -50 -55 -82 -70 -149 -70 -62 0 -63 -1 -40
-77 19 -63 77 -130 144 -166 84 -46 122 -27 147 76 6 27 6 28 -34 21 -32 -5
-44 -2 -61 15 -27 27 -27 65 -1 89 11 11 47 27 80 37 l60 18 0 82 c0 78 -1 82
-26 93 -28 13 -23 37 7 29 14 -4 19 0 19 13 0 11 -3 21 -7 23 -17 10 -100 15
-133 8z"/>
<path d="M0 4035 c0 -9 11 -20 25 -25 14 -5 25 -14 25 -20 0 -5 -11 -10 -25
-10 -25 0 -25 0 -25 -96 l0 -96 33 7 c56 12 150 61 200 105 55 49 53 57 -22
95 -97 48 -211 70 -211 40z"/>
<path d="M3 3655 c0 -27 2 -38 4 -22 2 15 2 37 0 50 -2 12 -4 0 -4 -28z"/>
<path d="M4705 3340 c-105 -21 -226 -86 -265 -141 -22 -30 -46 -139 -37 -163
4 -11 21 -13 69 -9 48 4 75 0 113 -15 167 -67 208 -82 212 -78 3 2 -23 17 -57
32 -63 28 -110 72 -110 104 0 28 28 50 61 50 40 0 67 -15 107 -57 28 -30 37
-34 65 -28 42 9 149 58 210 97 l47 30 0 90 0 90 -25 -6 c-65 -16 -117 -17
-196 -2 -92 17 -131 18 -194 6z m-59 -109 c-8 -13 -83 -34 -99 -28 -15 5 28
28 68 37 34 8 40 6 31 -9z"/>
<path d="M580 3241 c-59 -18 -158 -69 -200 -100 l-24 -19 24 -21 c14 -11 39
-27 57 -36 60 -29 157 9 273 106 25 21 52 39 58 39 25 0 11 22 -23 36 -45 18
-97 17 -165 -5z"/>
<path d="M2694 2959 c-117 -11 -221 -85 -275 -195 -27 -55 -32 -76 -32 -138 0
-57 4 -81 23 -114 13 -23 27 -42 30 -42 4 0 10 21 14 46 8 59 67 172 123 234
48 53 119 102 175 119 34 11 36 14 28 41 -15 53 -20 56 -86 49z"/>
<path d="M3000 2949 c-26 -10 -80 -57 -80 -70 0 -3 13 -12 30 -19 42 -17 107
-91 119 -136 6 -22 11 -62 11 -90 0 -48 2 -51 38 -71 l37 -22 36 52 c49 71 62
110 62 176 0 112 -78 192 -186 190 -23 0 -53 -5 -67 -10z"/>
<path d="M3415 2882 c-6 -4 -10 -45 -10 -92 0 -78 -3 -91 -39 -163 -21 -42
-54 -90 -72 -107 l-34 -30 67 -34 c189 -95 343 -100 406 -15 25 35 33 99 14
123 -14 19 -16 19 -77 -8 -50 -23 -73 -27 -112 -24 -82 8 -131 77 -113 159 9
38 29 37 76 -6 22 -19 46 -35 55 -35 8 0 36 12 60 26 34 20 53 25 79 21 21 -3
35 -2 35 4 0 6 -23 35 -51 65 -55 57 -127 98 -194 109 -22 3 -49 8 -60 10 -11
2 -25 1 -30 -3z"/>
<path d="M2878 2794 c-3 -52 2 -85 17 -107 16 -24 74 -63 76 -50 6 42 -32 133
-70 167 -21 19 -21 19 -23 -10z"/>
<path d="M2737 2711 c-13 -16 -46 -67 -72 -113 -56 -99 -78 -124 -127 -149
-58 -30 -107 -25 -168 16 -29 20 -55 34 -57 31 -2 -2 9 -30 26 -63 44 -84 57
-149 39 -193 -14 -35 -15 -35 -27 -12 -6 12 -17 60 -23 106 -10 80 -12 84 -32
77 -26 -10 -53 -1 -107 38 -23 17 -44 29 -47 26 -5 -5 100 -249 155 -360 77
-155 195 -325 225 -325 18 0 -2 132 -28 177 -33 57 -31 97 5 134 16 16 38 29
49 29 29 0 77 43 123 111 22 33 44 59 48 59 42 0 14 -223 -35 -275 -23 -24
-31 -27 -75 -23 -43 4 -49 3 -49 -14 0 -23 43 -68 64 -68 9 0 41 28 73 62 84
90 133 136 177 166 l38 26 -47 16 c-61 19 -86 53 -93 122 -4 42 -12 61 -38 90
-38 42 -62 114 -44 132 11 11 11 11 70 -33 l32 -24 -8 54 c-5 30 -9 89 -9 132
0 42 -3 77 -7 77 -3 0 -17 -13 -31 -29z m-215 -426 c0 -5 -5 -11 -11 -13 -6
-2 -11 4 -11 13 0 9 5 15 11 13 6 -2 11 -8 11 -13z"/>
<path d="M0 2398 c0 -7 14 -22 32 -33 76 -48 75 -47 151 -35 l71 13 -93 33
c-97 35 -161 44 -161 22z"/>
<path d="M5102 2348 c-16 -16 -15 -45 3 -83 13 -29 13 -29 14 33 1 34 0 62 -2
62 -2 0 -8 -5 -15 -12z"/>
<path d="M1050 2303 c-26 -18 -43 -23 -66 -18 -28 5 -33 2 -48 -29 -22 -46
-20 -84 7 -136 42 -84 149 -140 266 -140 59 0 140 18 181 40 23 12 23 13 -26
31 -66 25 -153 104 -221 201 -30 43 -55 78 -56 77 -1 0 -18 -12 -37 -26z m43
-137 c23 -14 74 -41 112 -61 56 -29 63 -35 36 -31 -53 9 -146 55 -177 87 -34
35 -26 37 29 5z"/>
<path d="M290 2048 c-6 -18 -14 -65 -17 -105 l-6 -72 35 -33 c19 -18 53 -48
76 -66 46 -36 66 -69 88 -143 15 -49 15 -49 57 -49 51 0 67 -13 67 -56 0 -89
-127 -257 -289 -382 -47 -36 -119 -95 -160 -130 -41 -35 -89 -71 -108 -80
l-33 -16 0 -88 0 -87 46 31 c26 17 89 48 142 69 l95 37 -31 16 c-40 21 -72 55
-72 77 0 22 107 114 113 97 3 -7 2 -33 0 -58 -4 -40 -2 -48 25 -74 l31 -28
113 10 c62 5 127 16 143 22 l30 12 -52 13 c-93 22 -135 65 -137 140 -1 55 24
85 70 85 28 0 38 -7 61 -41 l27 -41 12 34 c33 96 102 178 179 214 56 27 121
30 149 9 16 -12 23 -12 57 5 24 13 58 20 92 20 45 0 59 -4 81 -26 56 -57 22
-117 -97 -168 -43 -19 -80 -36 -83 -39 -3 -2 18 -31 46 -63 52 -62 90 -130 90
-164 0 -30 16 -24 30 10 7 16 30 46 52 66 36 32 45 35 88 32 46 -3 48 -2 81
42 79 105 226 121 353 38 58 -37 55 -51 -8 -43 -85 11 -163 -10 -208 -55 -35
-35 -38 -42 -38 -94 0 -76 32 -137 109 -208 61 -57 153 -102 195 -96 27 4 32
44 15 103 l-13 42 -65 -4 c-56 -4 -73 -1 -110 19 -63 34 -62 45 6 53 105 11
107 13 128 58 24 50 71 84 131 93 71 10 111 -2 157 -50 40 -41 46 -44 112 -49
152 -12 346 -97 499 -217 49 -38 92 -70 95 -70 4 0 15 6 26 14 11 7 54 28 96
45 74 31 108 58 142 113 21 33 50 36 70 7 17 -23 13 -41 -25 -133 -36 -84 -67
-118 -141 -154 -94 -46 -204 -72 -308 -72 -150 0 -176 26 -84 85 30 19 55 39
55 44 0 12 -71 59 -101 66 -34 8 -44 -7 -19 -30 11 -10 20 -26 20 -35 0 -21
-47 -66 -83 -79 -41 -16 -122 -13 -164 4 -44 18 -43 18 -43 0 0 -9 20 -35 45
-59 25 -25 45 -49 45 -55 0 -6 -19 -11 -45 -11 -81 0 -130 62 -194 245 -30 85
-54 125 -73 125 -13 0 -9 -78 8 -137 15 -51 15 -59 1 -89 -9 -18 -31 -41 -49
-50 -41 -22 -143 -23 -213 -2 -36 11 -79 14 -155 11 -88 -4 -115 -2 -165 15
-33 11 -61 20 -62 18 -1 -1 -5 -20 -9 -43 l-6 -41 56 -7 c31 -4 103 -6 160 -3
58 2 99 0 93 -5 -42 -29 -136 -70 -180 -78 -41 -8 -61 -8 -94 4 -45 15 -53 13
-53 -13 0 -10 -9 -39 -21 -65 -14 -32 -19 -57 -15 -79 10 -50 20 -59 55 -51
l31 7 -26 30 c-25 31 -27 68 -4 91 26 27 70 -26 70 -83 0 -17 3 -30 6 -30 4 0
35 27 69 59 147 137 348 190 523 136 63 -19 59 -35 -8 -35 -73 0 -186 -27
-242 -57 -32 -17 -79 -61 -133 -122 -77 -89 -82 -96 -59 -99 17 -2 37 7 61 28
19 17 51 39 70 48 31 15 37 15 61 1 18 -10 29 -25 32 -47 5 -31 6 -32 25 -18
12 9 42 15 75 16 72 0 92 15 119 90 44 119 128 173 211 135 l39 -18 39 32
c113 89 218 93 297 11 16 -17 35 -30 43 -30 8 0 58 13 111 29 124 38 152 43
217 42 93 -1 182 -67 218 -163 l17 -45 77 -11 c42 -7 94 -12 114 -12 20 0 40
-5 43 -10 4 -7 24 -8 50 -4 38 5 47 3 69 -19 14 -15 26 -33 26 -42 0 -13 22
-15 160 -15 160 0 161 0 223 31 34 18 104 60 155 95 51 35 96 64 100 64 4 0
48 -29 97 -65 94 -67 174 -105 226 -105 16 0 47 9 69 20 22 11 48 20 59 20 22
0 46 -34 36 -50 -4 -6 10 -10 34 -10 38 0 41 2 41 28 0 37 -26 71 -67 88 -28
12 -46 13 -96 3 -76 -13 -123 -7 -190 27 -99 50 -186 129 -165 149 3 3 43 -10
89 -29 152 -62 265 -71 366 -26 55 24 136 99 163 150 21 41 33 110 23 126 -5
6 -33 23 -63 37 -30 15 -62 32 -71 38 -12 9 -31 7 -85 -9 -57 -17 -78 -30
-118 -72 l-48 -50 26 -31 c45 -53 27 -119 -32 -119 -30 0 -59 17 -124 72 -93
78 -123 69 -285 -84 -89 -84 -130 -114 -212 -157 -56 -30 -121 -71 -145 -92
-24 -22 -46 -39 -49 -39 -3 0 -13 34 -22 76 -21 94 -20 95 109 158 67 34 115
68 184 131 95 85 198 148 268 161 19 3 34 9 34 13 -1 3 -20 15 -43 26 -33 16
-42 25 -42 45 0 24 1 25 66 22 100 -5 204 27 386 120 209 107 383 174 383 148
0 -4 -67 -43 -150 -85 -82 -43 -147 -81 -145 -85 3 -4 36 -11 75 -14 79 -8
145 -28 172 -53 16 -15 20 -14 50 11 18 15 54 41 80 59 l48 32 0 89 c0 80 -2
87 -17 80 -30 -13 -72 -8 -93 11 -42 38 -9 147 72 240 35 39 38 48 38 100 l0
58 -49 -46 c-54 -50 -118 -87 -153 -87 -13 0 -45 -11 -72 -25 -27 -14 -60 -25
-73 -25 -22 0 -23 -3 -23 -77 -1 -162 -89 -263 -231 -263 -59 0 -64 -2 -109
-44 -26 -24 -72 -57 -101 -72 -130 -68 -307 -11 -364 116 -24 52 -15 70 33 70
114 0 205 126 172 240 l-10 35 20 -25 c21 -27 40 -82 40 -115 0 -11 -9 -38
-19 -61 -22 -49 -73 -83 -139 -93 l-47 -7 34 -22 c66 -41 156 -47 216 -14 116
62 127 269 23 408 -18 24 -39 46 -47 49 -17 7 -163 -87 -197 -128 -14 -16 -39
-57 -56 -91 -42 -84 -106 -172 -164 -226 -98 -92 -255 -168 -321 -155 -20 3
-33 2 -33 -4 0 -21 -82 -70 -128 -77 -57 -8 -89 -24 -121 -58 -14 -14 -32 -26
-41 -26 -37 0 -54 108 -26 173 7 18 28 48 47 66 26 26 30 36 19 39 -24 8 -80
68 -80 86 0 26 -22 19 -91 -29 -101 -70 -133 -85 -187 -85 -36 0 -60 7 -93 29
-52 32 -72 71 -67 127 4 54 36 64 125 41 l66 -17 31 23 c17 13 51 34 76 47 25
12 47 24 48 26 6 5 -52 85 -107 147 -59 67 -65 100 -26 137 16 15 41 24 75 28
27 2 50 8 50 13 0 23 42 49 80 49 33 0 48 -7 84 -40 l43 -40 13 25 c7 14 23
31 35 39 46 30 140 123 167 165 21 34 28 57 28 95 0 59 -30 119 -58 114 -9 -2
-34 -35 -54 -73 -79 -146 -213 -236 -408 -275 -129 -25 -145 -33 -177 -88
l-26 -44 50 -51 c59 -61 73 -85 73 -126 0 -75 -112 -95 -201 -34 -88 60 -109
67 -199 68 -98 0 -145 -17 -229 -83 -80 -64 -177 -69 -206 -12 -8 16 -15 37
-15 46 0 35 44 107 83 135 l39 29 -28 11 c-61 23 -100 23 -134 -2 -28 -22 -42
-24 -133 -24 l-102 0 -135 61 c-219 99 -261 108 -435 90 -74 -8 -82 -7 -107
14 -31 24 -38 69 -13 90 21 17 9 30 -28 30 -64 0 -105 41 -77 75 7 8 22 15 34
15 17 0 18 2 6 10 -37 24 -180 1 -180 -29 0 -15 -79 -71 -108 -77 -22 -5 -34
-1 -51 17 -25 27 -27 64 -5 119 22 55 51 54 87 -2 25 -40 43 -35 72 22 26 52
66 84 117 96 47 10 118 -32 143 -83 l20 -43 71 0 c82 0 107 -14 147 -83 l26
-43 93 -2 c103 -1 221 -28 381 -86 85 -31 103 -34 143 -27 27 5 60 5 79 0 41
-11 107 -59 136 -98 l21 -29 52 24 c101 46 305 51 438 10 l46 -15 -15 45 c-14
40 -13 47 1 69 15 23 15 24 -22 36 -119 38 -245 131 -308 226 -28 41 -45 57
-58 55 -24 -5 -63 34 -71 70 -4 16 -10 27 -13 26 -18 -10 -82 -37 -125 -52
-63 -23 -101 -57 -121 -106 -18 -46 -14 -63 21 -79 21 -10 193 -15 193 -6 0 1
-7 22 -15 45 -28 80 -16 130 32 130 27 0 66 -55 82 -117 9 -32 8 -51 -2 -82
l-14 -40 64 -62 c35 -34 62 -63 60 -65 -2 -2 -29 7 -62 20 -48 20 -70 23 -129
19 l-71 -5 -98 62 c-97 62 -97 62 -141 51 -142 -35 -255 11 -292 121 -8 26
-21 49 -27 49 -7 1 -54 3 -105 3 -50 1 -96 6 -102 12 -15 15 207 125 253 124
79 0 136 -44 158 -120 8 -31 14 -39 16 -25 2 11 10 36 18 56 13 36 8 139 -9
167 -17 28 -69 44 -126 40 -45 -3 -70 -13 -121 -45 -100 -63 -183 -102 -251
-118 -134 -31 -343 -10 -355 36 -3 10 -11 19 -17 19 -19 0 -127 -68 -161 -101
-51 -48 -75 -41 -146 45 -67 82 -112 118 -185 145 -38 15 -50 25 -56 48 -7 28
-52 63 -81 63 -8 0 -20 -15 -27 -32z m1004 -763 c11 -8 31 -15 44 -15 39 0 62
-18 62 -48 0 -39 -60 -94 -142 -131 l-68 -30 26 50 c16 33 27 75 31 120 6 72
13 80 47 54z m571 -230 c0 -25 -4 -30 -24 -30 -32 0 -49 28 -31 50 7 9 23 15
34 13 16 -2 21 -10 21 -33z m703 -81 c29 -14 57 -34 62 -45 10 -17 8 -17 -37
3 -27 11 -79 31 -118 44 l-70 22 56 1 c40 1 69 -6 107 -25z m1249 -281 c19 -9
48 -34 64 -56 23 -32 29 -50 29 -94 0 -123 -97 -230 -256 -283 -55 -19 -64
-25 -64 -45 0 -51 -79 -60 -158 -17 -28 15 -100 63 -161 107 -61 44 -136 94
-167 112 l-57 31 34 21 c56 34 108 28 223 -26 96 -46 105 -48 186 -47 66 0 96
5 134 22 109 49 141 96 95 138 -38 34 -52 72 -39 105 19 46 79 60 137 32z
m-256 -114 c6 -11 8 -23 5 -26 -6 -6 -66 35 -66 46 0 28 42 14 61 -20z m1173
-105 c15 -39 6 -84 -24 -118 -35 -39 -67 -50 -104 -36 -38 14 -32 33 22 67 30
19 55 44 66 66 18 40 30 46 40 21z"/>
<path d="M150 1994 c-58 -46 -93 -64 -125 -64 -24 0 -25 -1 -25 -72 0 -103 17
-246 35 -294 8 -22 31 -56 50 -74 27 -27 35 -42 35 -71 0 -39 -18 -64 -82
-113 l-38 -28 0 -105 0 -104 83 73 c45 40 113 98 149 128 137 112 139 186 11
340 -68 82 -88 143 -80 250 3 41 12 95 21 120 8 24 14 45 13 47 -2 1 -23 -14
-47 -33z m28 -414 c42 -66 43 -82 1 -60 -22 12 -49 61 -49 90 0 31 12 24 48
-30z"/>
<path d="M2840 1881 c-69 -72 -138 -135 -153 -140 -16 -6 -51 -11 -80 -11
l-51 0 39 -41 c41 -42 112 -99 125 -99 4 0 5 11 2 25 -13 70 31 109 89 80 42
-21 79 -54 79 -71 0 -20 -66 -71 -101 -79 -43 -10 -18 -25 30 -19 219 28 411
98 455 166 8 13 18 40 21 61 4 21 18 53 30 71 l23 34 -37 34 c-83 79 -130 87
-218 38 -57 -33 -113 -39 -133 -15 -10 12 -6 20 24 47 43 38 45 48 9 48 -23 0
-52 -25 -153 -129z m420 -14 c0 -29 -73 -97 -136 -128 -51 -26 -82 -33 -143
-37 -72 -4 -79 -3 -109 23 -20 17 -32 36 -32 52 0 23 3 25 33 19 17 -4 64 -10
104 -13 66 -5 78 -3 135 25 35 17 77 39 93 50 35 24 55 27 55 9z"/>
<path d="M3617 1505 c-28 -67 -79 -128 -158 -186 -43 -33 -78 -68 -90 -91 -20
-38 -20 -39 1 -106 28 -91 35 -166 20 -236 -6 -31 -9 -60 -5 -64 3 -4 21 10
38 30 39 45 71 58 143 58 30 0 67 6 83 14 28 15 116 104 109 111 -2 3 -23 -5
-47 -17 -37 -18 -47 -19 -81 -9 -34 10 -70 42 -70 62 0 4 20 19 43 32 52 31
111 94 130 139 41 97 27 211 -33 271 -21 20 -44 37 -51 37 -8 0 -22 -20 -32
-45z m-117 -314 c0 -20 -27 -48 -36 -38 -4 3 -4 18 0 32 7 29 36 34 36 6z"/>
<path d="M3939 1448 c-1 -2 -3 -43 -4 -93 -2 -59 -10 -113 -24 -158 -13 -38
-20 -71 -18 -73 2 -3 19 31 38 73 19 43 56 107 82 142 52 69 52 69 -10 97 -29
12 -61 18 -64 12z"/>
<path d="M2942 1324 c-45 -31 -17 -71 107 -154 35 -24 81 -58 103 -78 21 -19
38 -29 38 -22 0 30 -80 160 -130 213 -58 60 -81 67 -118 41z"/>
<path d="M802 1164 c-27 -19 -47 -57 -56 -106 -6 -33 -3 -40 34 -77 49 -48 51
-78 9 -125 -30 -35 -122 -86 -154 -86 -12 0 1 -20 39 -61 79 -85 91 -105 76
-124 -29 -35 -100 1 -100 52 0 18 -13 39 -42 66 -40 38 -43 39 -96 33 -35 -4
-59 -2 -68 5 -36 29 -163 -37 -244 -128 -57 -63 -80 -127 -80 -219 0 -82 17
-147 32 -120 5 9 17 16 28 16 14 0 20 10 25 43 13 79 53 130 110 139 22 4 33
34 34 99 1 58 29 85 103 101 48 10 59 9 93 -8 21 -10 41 -24 43 -31 2 -7 -25
-26 -63 -44 -90 -42 -131 -80 -139 -127 -4 -20 -23 -62 -42 -94 -58 -95 -43
-105 27 -18 55 68 114 101 242 136 92 25 177 70 177 94 0 14 39 32 55 26 23
-8 -1 -60 -46 -100 -49 -45 -89 -62 -206 -85 -108 -21 -125 -31 -100 -59 18
-20 22 -42 8 -42 -5 0 -23 -13 -40 -29 -62 -58 -29 -157 61 -182 54 -14 83 -6
136 42 52 45 83 49 117 14 29 -28 29 -28 10 -91 -22 -73 -22 -74 38 -74 48 1
54 3 77 36 78 111 115 126 195 75 27 -17 50 -29 53 -27 2 3 -10 22 -27 44 -18
21 -34 55 -38 76 -5 33 -2 40 35 74 70 65 86 181 39 295 -15 37 -32 93 -36
125 -5 31 -9 48 -10 37 -3 -41 -51 -124 -108 -188 -72 -79 -93 -135 -74 -198
9 -28 23 -46 51 -64 43 -27 49 -45 24 -66 -13 -10 -24 -8 -67 13 -29 14 -61
29 -73 32 -11 4 -31 17 -44 31 -35 38 -30 96 18 202 39 85 72 174 72 193 0 5
-16 2 -35 -6 -19 -7 -47 -14 -62 -14 -57 0 -123 64 -95 92 7 7 20 3 40 -12 38
-28 88 -22 122 15 22 23 24 37 31 185 5 88 11 165 14 171 4 5 -1 21 -9 34 -20
30 -78 34 -114 9z m303 -775 c9 -28 -9 -46 -30 -29 -8 7 -15 21 -15 31 0 26
37 25 45 -2z"/>
<path d="M1312 847 c-21 -25 -42 -86 -42 -119 0 -41 30 -106 61 -135 13 -12
51 -34 84 -50 50 -23 73 -28 140 -28 57 0 89 5 110 17 l30 17 -30 1 c-42 0
-165 61 -214 106 -54 48 -79 84 -106 151 -18 42 -25 51 -33 40z"/>
<path d="M2100 679 c16 -35 30 -72 30 -81 0 -33 29 -48 93 -48 44 0 71 6 95
20 37 23 44 46 10 35 -13 -4 -41 -10 -64 -12 -36 -4 -44 -1 -63 23 -17 21 -21
36 -17 60 8 40 -9 55 -69 62 l-45 5 30 -64z"/>
<path d="M10 536 c-6 -8 -10 -25 -8 -36 2 -17 5 -14 14 14 12 40 12 42 -6 22z"/>
<path d="M5033 446 c-112 -131 -143 -217 -123 -345 17 -105 15 -102 68 -99 44
3 47 5 53 36 7 36 41 78 71 88 17 5 18 20 18 200 0 149 -3 194 -12 193 -7 0
-41 -33 -75 -73z"/>
<path d="M4 200 c3 -69 5 -132 6 -140 1 -8 -1 -25 -5 -37 -7 -22 -5 -23 41
-23 47 0 50 2 65 38 11 27 28 44 56 58 l41 20 -19 25 c-10 13 -24 39 -30 56
-9 28 -14 32 -35 27 -45 -11 -72 4 -99 54 l-25 47 4 -125z"/>
<path d="M2325 147 c-81 -44 -151 -95 -171 -125 -16 -24 -15 -25 3 -20 21 5
263 165 263 173 0 13 -41 1 -95 -28z"/>
<path d="M2750 96 c-70 -24 -133 -55 -165 -80 -18 -14 -1 -15 198 -16 l217 0
0 26 c0 88 -111 120 -250 70z"/>
<path d="M205 56 c-16 -7 -39 -24 -50 -36 l-20 -23 25 6 c14 3 40 11 58 18 29
12 37 12 63 -4 17 -9 40 -17 51 -17 21 0 21 0 2 21 -36 40 -86 53 -129 35z"/>
<path d="M4105 10 c-4 -6 13 -10 45 -10 32 0 49 4 45 10 -3 6 -24 10 -45 10
-21 0 -42 -4 -45 -10z"/>
</g>
</svg>